<?xml version="1.0" encoding="UTF-8" standalone="no"?>
<svg xmlns:rdf="http://www.w3.org/1999/02/22-rdf-syntax-ns#" xmlns="http://www.w3.org/2000/svg" height="77.246mm" width="15.863mm" version="1.1" xmlns:cc="http://creativecommons.org/ns#" xmlns:xlink="http://www.w3.org/1999/xlink" viewBox="0 0 56.206253 273.70493" xmlns:dc="http://purl.org/dc/elements/1.1/">
 <defs>
  <linearGradient id="linearGradient6410" y2="406.29" gradientUnits="userSpaceOnUse" x2="239.53" y1="258.75" x1="239.53">
   <stop stop-color="#fff" stop-opacity=".22" offset="0"/>
   <stop stop-color="#fff" stop-opacity=".18039" offset="0.0327"/>
   <stop stop-color="#fff" stop-opacity=".16863" offset=".075438"/>
   <stop stop-color="#fff" stop-opacity=".15686" offset=".14226"/>
   <stop stop-color="#fff" stop-opacity=".14118" offset=".23862"/>
   <stop stop-color="#fff" stop-opacity=".12157" offset=".34196"/>
   <stop stop-color="#fff" stop-opacity=".086275" offset=".51524"/>
   <stop stop-color="#fff" stop-opacity=".043137" offset=".73981"/>
   <stop stop-color="#fff" stop-opacity=".023529" offset=".84548"/>
   <stop stop-color="#fff" stop-opacity="0" offset="1"/>
  </linearGradient>
 </defs>
 <g transform="translate(-346.9 -395.51)">
  <g fill-rule="evenodd" transform="matrix(1.25 0 0 -1.25 -357.9 894.53)">
   <path d="m241.29 258.49c-0.628 0.029-1.272 0.157-1.871 0.261-0.748 0.129-1.615 0.251-2.13 0.809-0.563 0.611-0.75 1.567-0.691 2.396 0.065 0.947 0.911 1.685 1.161 2.601 0.243 0.892 0.726 2.005 0.313 2.755-1.091-0.099-4.318-0.779-6.34-0.662-0.112 3.034 0.735 6.94 0.718 10.421-0.017 3.732-0.39 7.44-0.198 11.104 0.162 3.084 0.612 6.173 0.452 9.258-0.346 6.653-2.763 13.098-3.041 19.755-0.114 2.699 0.391 5.388 0.558 8.084 0.111 1.776 0.036 3.57 0.292 5.331 0.397 2.713 1.766 5.262 1.914 7.999 0.194 3.548-0.525 7.116-1.337 10.575-0.64 2.73-1.715 5.346-2.769 7.945-0.224 0.55-0.439 1.109-0.75 1.614-0.344 0.555-0.884 0.974-1.221 1.534-1.832 3.042-3.066 6.423-4.263 9.767-1.457 4.065-3.078 8.169-3.532 12.463-0.044 0.418 0.08 0.841 0.084 1.262 0.002 0.391-0.232 0.821-0.06 1.173 2.455 2.411 6.246 4.609 9.51 6.705 1.839 1.183 4.013 1.874 5.665 3.304 0.237 0.204 0.332 0.549 0.583 0.733 0.232 0.168 0.609 0.096 0.805 0.304 1.475 1.57 1.175 4.149 1.91 6.174 0.512 1.412 1.256 2.766 1.741 4.157 0.187 0.23 0.284 0.314 0.477 0.339 0.353 0.043 0.78-0.099 0.996-0.381 0.209-0.272 0.043-0.688 0.105-1.025 0.148-0.817 0.548-1.582 0.633-2.407 0.071-0.684-0.195-1.376-0.105-2.057 0.207-1.561 0.975-3.201 1.463-4.491 0.292-0.469 0.738-0.833 1.185-1.157 3.688-1.703 5.983-3.108 9.274-4.854 2.211-1.298 4.201-2.622 6.267-3.984 0.434-0.287 1.033-0.427 1.286-0.88 0.173-0.311 0.038-0.711 0.051-1.066 0.031-0.843 0.13-1.689 0.068-2.531-0.262-3.538-0.982-7.041-1.844-10.484-0.694-2.762-2.043-5.339-2.667-8.118-0.108-0.474-0.032-0.984-0.181-1.446-0.434-1.334-1.548-2.37-2.027-3.689-0.869-2.394-1.146-4.971-1.478-7.496-0.16-1.224-0.182-2.462-0.245-3.692-0.115-2.26-0.529-4.541-0.241-6.783 0.361-2.804 1.58-5.43 2.437-8.125 0.232-0.728 0.419-1.477 0.735-2.174 0.232-0.517 0.61-0.962 0.846-1.476 0.308-0.669 0.354-1.454 0.737-2.081 0.874-1.431 2.25-2.493 3.455-3.658 2.364-2.287 5.018-4.282 7.4-6.533 2.975-2.813 6.737-5.567 8.212-9.225 0.86-2.137-0.238-4.976-1.784-6.693-2.317-2.077-7.041-2.667-9.468-3.616 0.123-1.046 0.685-2.678 1.245-3.968-3.445-0.523-7.856 0-10.333 0.576-0.976 0.593-1.165 2.198-1.743 2.953-2.128-0.374-5.328-1.306-7.343-3.022-1.836-1.564-3.067-3.864-3.782-6.167-0.199-0.64 0.119-1.378-0.104-2.011-0.212-0.604-1.071-0.921-1.122-1.559-0.056-0.724 0.882-1.229 0.975-1.948 0.057-0.441-0.339-0.865-0.271-1.303 0.305-1.978 1.833-3.507 2.941-5.236-0.865-1.205-2.405-3.455-2.701-4.418 0.169-1.07 0.953-2.187 1.074-3.355 0.066-0.637-0.254-1.276-0.195-1.914 0.144-1.54 0.847-3.188 1.314-4.452 0.279-0.756-0.607-1.522-1.272-1.884-0.534-0.291-1.144-0.36-1.773-0.331zm3.206 41.132c0.229-0.008 0.459-0.011 0.687-0.006 0.458 0.008 0.912 0.042 1.354 0.091 1.542 0.179 2.959 0.974 4.354 1.656 1.419 0.693 2.617 1.797 4.051 2.46 1.823 0.842 4.188 1.493 5.72 1.897 0.366 0.096 0.279-0.321 0.556-0.203 0.391 0.164 0.567 0.42 0.674 0.636-1.25 0.504-2.553 1.68-3.815 2.544-3.148 2.157-5.978 4.829-9.364 6.589-0.932 0.485-1.921 1.169-2.966 1.068-0.607-0.058-1.197-0.458-1.573-0.938-0.859-2.224-1.745-4.857-2.223-7.383-0.163-0.859-0.138-1.743-0.215-2.616-0.148-1.666-0.334-3.502-0.472-4.997 0.761-0.419 1.638-0.648 2.546-0.747 0.227-0.025 0.456-0.041 0.686-0.051zm-10.687 65.979c0.079-0.003 0.158 0.003 0.238 0.014 0.473 0.073 0.948 0.386 1.37 0.623 0.202 0.113 0.391 0.247 0.57 0.392l0.216 0.19 0.105 0.23c0.241 0.437 0.68 1.123 0.899 1.647l0.239 0.792-0.052 0.261-0.019 0.088-0.335-0.538c-0.4-0.553-1.358-1.706-1.319-1.578 0.089 0.289 0.852 1.225 1.174 1.891l0.296 0.836-0.027 0.052c-0.064 0.101-0.149 0.183-0.26 0.238l-0.021 0.005-0.772-1.449c-0.363-0.582-1.231-1.793-1.197-1.659 0.082 0.302 0.774 1.288 1.068 1.984l0.367 1.138-0.025-0.004-0.155-0.058-0.867-1.71c-0.34-0.567-1.137-1.715-1.211-1.745-0.005 0-0.007 0.002-0.005 0.01 0.071 0.308 0.772 1.337 1.051 2.052l0.289 1.009-0.081-0.044-0.317-0.166-0.668-1.132c-0.399-0.581-1.359-1.788-1.319-1.656 0.088 0.303 0.853 1.287 1.177 1.983l0.124 0.363-0.152-0.113c-0.116-0.099-0.225-0.202-0.326-0.314-0.431-0.477-0.79-1.016-1.096-1.588l-0.471-1.071 0.098-0.125c0.326-0.383 0.698-0.688 1.179-0.813 0.078-0.021 0.156-0.032 0.235-0.035zm12.988-0.236c0.087-0.004 0.175-0.006 0.262-0.003 0.348 0.008 0.687 0.074 0.984 0.236 0.885 0.482 1.219 1.606 1.801 2.43 0.894 1.265 2.026 2.416 2.592 3.859 0.58 1.479 0.391 3.16 0.744 4.709 0.333 1.464 1.523 3.145 1.293 4.316-0.285 1.461-2.23 3.905-4.923 6.322-0.95 0.854-4.803 3.984-5.957 4.573-1.443 0.736-2.994 1.099-4.106 2.177-0.301 0.293-0.303 0.852-0.625 1.096-0.149-0.324-0.154-0.985-0.551-1.25-1.812-1.212-5.199-3.25-7.361-5.267-1.709-1.596-3.418-3.137-4.969-5.104-0.5-0.635-1.099-1.316-1.184-2.12-0.097-0.917 0.52-1.772 0.813-2.646 0.78-2.308 2.17-4.418 2.521-6.862 0.203-1.408 1.822-2.191 2.765-3.262 0.217-0.249 0.414-0.536 0.606-0.831l0.478-0.728 0.458 1.054c0.176 0.532 0.319 1.077 0.455 1.618 0.154 0.609 0.217 1.24 0.287 1.865 0.235 2.063 0.307 4.144 0.459 6.215v0.012l-0.252-0.16c-0.1-0.059-0.167-0.097-0.184-0.098-0.004 0-0.005 0.002-0.001 0.007 0.031 0.046 0.105 0.114 0.203 0.195l0.24 0.191 0.01 0.247-0.003 0.322-0.353-0.243c-0.281-0.183-0.52-0.329-0.552-0.331-0.005 0-0.005 0.002-0.002 0.007 0.063 0.092 0.294 0.27 0.556 0.475l0.348 0.298-0.009 0.482-0.463-0.317c-0.283-0.184-0.521-0.331-0.553-0.333-0.005-0.001-0.006 0.002-0.002 0.007 0.064 0.093 0.294 0.271 0.555 0.476l0.46 0.392 0.008 0.359 0.02 0.235-0.328-0.284c-0.428-0.318-1.418-0.96-1.362-0.878 0.128 0.185 0.92 0.71 1.308 1.117l0.484 0.635 0.102 0.318c0.539 1.34 1.858 2.213 2.764 3.339 0.461 0.574 0.714 1.39 1.362 1.741 1.214 0.657 2.75 0.431 4.13 0.35 0.807-0.047 1.646-0.138 2.374-0.489 1.271-0.614 2.606-1.458 3.247-2.715 0.291-0.572-0.057-1.311 0.133-1.924 0.087-0.281 0.379-0.475 0.446-0.762 0.085-0.365-0.06-0.747-0.078-1.122-0.023-0.466-0.07-0.937-0.04-1.403 0.074-1.219 0.65-2.405 0.552-3.621-0.063-0.779-0.257-1.6-0.719-2.228l-0.183-0.199 0.098-0.225c0.062-0.15 0.106-0.272 0.119-0.348 0.006-0.034-0.032 0.018-0.097 0.127l-0.212 0.372-0.152-0.117-0.08-0.047 0.175-0.401c0.063-0.15 0.107-0.273 0.121-0.348 0.011-0.068-0.155 0.211-0.358 0.583l-0.051 0.099-0.063-0.037c-0.087-0.048-0.176-0.094-0.268-0.139l-0.143-0.075 0.008-0.017c0.171-0.384 0.319-0.714 0.347-0.868 0.012-0.068-0.154 0.212-0.359 0.584l-0.121 0.237-0.257-0.15-0.039-0.028 0.132-0.329c0.171-0.383 0.319-0.714 0.347-0.868 0.012-0.067-0.154 0.214-0.358 0.585l-0.262 0.507-0.055-0.039c-0.073-0.063-0.141-0.132-0.201-0.21l-0.005-0.004 0.323-0.807c0.17-0.384 0.319-0.715 0.347-0.868 0.002-0.008 0-0.011-0.003-0.009-0.03 0.014-0.199 0.305-0.393 0.663l-0.419 0.814-0.114-0.195-0.072-0.146 0.189-0.432c0.062-0.15 0.106-0.271 0.12-0.347 0.011-0.068-0.155 0.211-0.359 0.583l-0.02 0.04-0.059-0.146c-0.115-0.308-0.191-0.631-0.243-0.951-0.126-0.797-0.05-1.601 0.055-2.409l0.086-0.906 0.464-0.121c0.247-0.05 0.51-0.089 0.772-0.102zm-10.416 1.613 0.128 0.114c0.338 0.324 0.663 0.662 1.02 0.959l0.055 0.05-0.001 0.003c-0.004 0.213-0.005 0.426-0.018 0.638l-0.005 0.056-0.227-0.428c-0.167-0.273-0.446-0.684-0.69-1.03l-0.262-0.362z" transform="matrix(.74132 0 0 -.74132 404.25 481.72)" fill="url(#linearGradient6410)"/>
   <path d="m241.29 258.49c-0.628 0.029-1.272 0.157-1.871 0.261-0.748 0.129-1.615 0.251-2.13 0.809-0.563 0.611-0.75 1.567-0.691 2.396 0.065 0.947 0.911 1.685 1.161 2.601 0.243 0.892 0.726 2.005 0.313 2.755-1.091-0.099-4.318-0.779-6.34-0.662-0.112 3.034 0.735 6.94 0.718 10.421-0.017 3.732-0.39 7.44-0.198 11.104 0.162 3.084 0.612 6.173 0.452 9.258-0.346 6.653-2.763 13.098-3.041 19.755-0.114 2.699 0.391 5.388 0.558 8.084 0.111 1.776 0.036 3.57 0.292 5.331 0.397 2.713 1.766 5.262 1.914 7.999 0.194 3.548-0.525 7.116-1.337 10.575-0.64 2.73-1.715 5.346-2.769 7.945-0.224 0.55-0.439 1.109-0.75 1.614-0.344 0.555-0.884 0.974-1.221 1.534-1.832 3.042-3.066 6.423-4.263 9.767-1.457 4.065-3.078 8.169-3.532 12.463-0.044 0.418 0.08 0.841 0.084 1.262 0.002 0.391-0.232 0.821-0.06 1.173 2.455 2.411 6.246 4.609 9.51 6.705 1.839 1.183 4.013 1.874 5.665 3.304 0.237 0.204 0.332 0.549 0.583 0.733 0.232 0.168 0.609 0.096 0.805 0.304 1.475 1.57 1.175 4.149 1.91 6.174 0.512 1.412 1.256 2.766 1.741 4.157 0.187 0.23 0.284 0.314 0.477 0.339 0.353 0.043 0.78-0.099 0.996-0.381 0.209-0.272 0.043-0.688 0.105-1.025 0.148-0.817 0.548-1.582 0.633-2.407 0.071-0.684-0.195-1.376-0.105-2.057 0.207-1.561 0.975-3.201 1.463-4.491 0.292-0.469 0.738-0.833 1.185-1.157 3.688-1.703 5.983-3.108 9.274-4.854 2.211-1.298 4.201-2.622 6.267-3.984 0.434-0.287 1.033-0.427 1.286-0.88 0.173-0.311 0.038-0.711 0.051-1.066 0.031-0.843 0.13-1.689 0.068-2.531-0.262-3.538-0.982-7.041-1.844-10.484-0.694-2.762-2.043-5.339-2.667-8.118-0.108-0.474-0.032-0.984-0.181-1.446-0.434-1.334-1.548-2.37-2.027-3.689-0.869-2.394-1.146-4.971-1.478-7.496-0.16-1.224-0.182-2.462-0.245-3.692-0.115-2.26-0.529-4.541-0.241-6.783 0.361-2.804 1.58-5.43 2.437-8.125 0.232-0.728 0.419-1.477 0.735-2.174 0.232-0.517 0.61-0.962 0.846-1.476 0.308-0.669 0.354-1.454 0.737-2.081 0.874-1.431 2.25-2.493 3.455-3.658 2.364-2.287 5.018-4.282 7.4-6.533 2.975-2.813 6.737-5.567 8.212-9.225 0.86-2.137-0.238-4.976-1.784-6.693-2.317-2.077-7.041-2.667-9.468-3.616 0.123-1.046 0.685-2.678 1.245-3.968-3.445-0.523-7.856 0-10.333 0.576-0.976 0.593-1.165 2.198-1.743 2.953-2.128-0.374-5.328-1.306-7.343-3.022-1.836-1.564-3.067-3.864-3.782-6.167-0.199-0.64 0.119-1.378-0.104-2.011-0.212-0.604-1.071-0.921-1.122-1.559-0.056-0.724 0.882-1.229 0.975-1.948 0.057-0.441-0.339-0.865-0.271-1.303 0.305-1.978 1.833-3.507 2.941-5.236-0.865-1.205-2.405-3.455-2.701-4.418 0.169-1.07 0.953-2.187 1.074-3.355 0.066-0.637-0.254-1.276-0.195-1.914 0.144-1.54 0.847-3.188 1.314-4.452 0.279-0.756-0.607-1.522-1.272-1.884-0.534-0.291-1.144-0.36-1.773-0.331zm3.206 41.132c0.229-0.008 0.459-0.011 0.687-0.006 0.458 0.008 0.912 0.042 1.354 0.091 1.542 0.179 2.959 0.974 4.354 1.656 1.419 0.693 2.617 1.797 4.051 2.46 1.823 0.842 4.188 1.493 5.72 1.897 0.366 0.096 0.279-0.321 0.556-0.203 0.391 0.164 0.567 0.42 0.674 0.636-1.25 0.504-2.553 1.68-3.815 2.544-3.148 2.157-5.978 4.829-9.364 6.589-0.932 0.485-1.921 1.169-2.966 1.068-0.607-0.058-1.197-0.458-1.573-0.938-0.859-2.224-1.745-4.857-2.223-7.383-0.163-0.859-0.138-1.743-0.215-2.616-0.148-1.666-0.334-3.502-0.472-4.997 0.761-0.419 1.638-0.648 2.546-0.747 0.227-0.025 0.456-0.041 0.686-0.051zm-10.687 65.979c0.079-0.003 0.158 0.003 0.238 0.014 0.473 0.073 0.948 0.386 1.37 0.623 0.202 0.113 0.391 0.247 0.57 0.392l0.216 0.19 0.105 0.23c0.241 0.437 0.68 1.123 0.899 1.647l0.239 0.792-0.052 0.261-0.019 0.088-0.335-0.538c-0.4-0.553-1.358-1.706-1.319-1.578 0.089 0.289 0.852 1.225 1.174 1.891l0.296 0.836-0.027 0.052c-0.064 0.101-0.149 0.183-0.26 0.238l-0.021 0.005-0.772-1.449c-0.363-0.582-1.231-1.793-1.197-1.659 0.082 0.302 0.774 1.288 1.068 1.984l0.367 1.138-0.025-0.004-0.155-0.058-0.867-1.71c-0.34-0.567-1.137-1.715-1.211-1.745-0.005 0-0.007 0.002-0.005 0.01 0.071 0.308 0.772 1.337 1.051 2.052l0.289 1.009-0.081-0.044-0.317-0.166-0.668-1.132c-0.399-0.581-1.359-1.788-1.319-1.656 0.088 0.303 0.853 1.287 1.177 1.983l0.124 0.363-0.152-0.113c-0.116-0.099-0.225-0.202-0.326-0.314-0.431-0.477-0.79-1.016-1.096-1.588l-0.471-1.071 0.098-0.125c0.326-0.383 0.698-0.688 1.179-0.813 0.078-0.021 0.156-0.032 0.235-0.035zm12.988-0.236c0.087-0.004 0.175-0.006 0.262-0.003 0.348 0.008 0.687 0.074 0.984 0.236 0.885 0.482 1.219 1.606 1.801 2.43 0.894 1.265 2.026 2.416 2.592 3.859 0.58 1.479 0.391 3.16 0.744 4.709 0.333 1.464 1.523 3.145 1.293 4.316-0.285 1.461-2.23 3.905-4.923 6.322-0.95 0.854-4.803 3.984-5.957 4.573-1.443 0.736-2.994 1.099-4.106 2.177-0.301 0.293-0.303 0.852-0.625 1.096-0.149-0.324-0.154-0.985-0.551-1.25-1.812-1.212-5.199-3.25-7.361-5.267-1.709-1.596-3.418-3.137-4.969-5.104-0.5-0.635-1.099-1.316-1.184-2.12-0.097-0.917 0.52-1.772 0.813-2.646 0.78-2.308 2.17-4.418 2.521-6.862 0.203-1.408 1.822-2.191 2.765-3.262 0.217-0.249 0.414-0.536 0.606-0.831l0.478-0.728 0.458 1.054c0.176 0.532 0.319 1.077 0.455 1.618 0.154 0.609 0.217 1.24 0.287 1.865 0.235 2.063 0.307 4.144 0.459 6.215v0.012l-0.252-0.16c-0.1-0.059-0.167-0.097-0.184-0.098-0.004 0-0.005 0.002-0.001 0.007 0.031 0.046 0.105 0.114 0.203 0.195l0.24 0.191 0.01 0.247-0.003 0.322-0.353-0.243c-0.281-0.183-0.52-0.329-0.552-0.331-0.005 0-0.005 0.002-0.002 0.007 0.063 0.092 0.294 0.27 0.556 0.475l0.348 0.298-0.009 0.482-0.463-0.317c-0.283-0.184-0.521-0.331-0.553-0.333-0.005-0.001-0.006 0.002-0.002 0.007 0.064 0.093 0.294 0.271 0.555 0.476l0.46 0.392 0.008 0.359 0.02 0.235-0.328-0.284c-0.428-0.318-1.418-0.96-1.362-0.878 0.128 0.185 0.92 0.71 1.308 1.117l0.484 0.635 0.102 0.318c0.539 1.34 1.858 2.213 2.764 3.339 0.461 0.574 0.714 1.39 1.362 1.741 1.214 0.657 2.75 0.431 4.13 0.35 0.807-0.047 1.646-0.138 2.374-0.489 1.271-0.614 2.606-1.458 3.247-2.715 0.291-0.572-0.057-1.311 0.133-1.924 0.087-0.281 0.379-0.475 0.446-0.762 0.085-0.365-0.06-0.747-0.078-1.122-0.023-0.466-0.07-0.937-0.04-1.403 0.074-1.219 0.65-2.405 0.552-3.621-0.063-0.779-0.257-1.6-0.719-2.228l-0.183-0.199 0.098-0.225c0.062-0.15 0.106-0.272 0.119-0.348 0.006-0.034-0.032 0.018-0.097 0.127l-0.212 0.372-0.152-0.117-0.08-0.047 0.175-0.401c0.063-0.15 0.107-0.273 0.121-0.348 0.011-0.068-0.155 0.211-0.358 0.583l-0.051 0.099-0.063-0.037c-0.087-0.048-0.176-0.094-0.268-0.139l-0.143-0.075 0.008-0.017c0.171-0.384 0.319-0.714 0.347-0.868 0.012-0.068-0.154 0.212-0.359 0.584l-0.121 0.237-0.257-0.15-0.039-0.028 0.132-0.329c0.171-0.383 0.319-0.714 0.347-0.868 0.012-0.067-0.154 0.214-0.358 0.585l-0.262 0.507-0.055-0.039c-0.073-0.063-0.141-0.132-0.201-0.21l-0.005-0.004 0.323-0.807c0.17-0.384 0.319-0.715 0.347-0.868 0.002-0.008 0-0.011-0.003-0.009-0.03 0.014-0.199 0.305-0.393 0.663l-0.419 0.814-0.114-0.195-0.072-0.146 0.189-0.432c0.062-0.15 0.106-0.271 0.12-0.347 0.011-0.068-0.155 0.211-0.359 0.583l-0.02 0.04-0.059-0.146c-0.115-0.308-0.191-0.631-0.243-0.951-0.126-0.797-0.05-1.601 0.055-2.409l0.086-0.906 0.464-0.121c0.247-0.05 0.51-0.089 0.772-0.102zm-10.416 1.613 0.128 0.114c0.338 0.324 0.663 0.662 1.02 0.959l0.055 0.05-0.001 0.003c-0.004 0.213-0.005 0.426-0.018 0.638l-0.005 0.056-0.227-0.428c-0.167-0.273-0.446-0.684-0.69-1.03l-0.262-0.362z" transform="matrix(.74132 0 0 .74132 401.85 97.752)" fill="#fff"/>
  </g>
 </g>
</svg>
