<?xml version="1.0" encoding="UTF-8" standalone="no"?>
<svg xmlns:rdf="http://www.w3.org/1999/02/22-rdf-syntax-ns#" xmlns="http://www.w3.org/2000/svg" height="119.78" width="252.52" version="1.1" xmlns:cc="http://creativecommons.org/ns#" xmlns:xlink="http://www.w3.org/1999/xlink" viewBox="0 0 252.52458 119.77651" xmlns:dc="http://purl.org/dc/elements/1.1/">
 <defs>
  <linearGradient id="linearGradient6093" y2="262.1" gradientUnits="userSpaceOnUse" x2="253.12" gradientTransform="matrix(.65598 0 0 .65598 578.05 301.97)" y1="172.06" x1="253.12">
   <stop stop-opacity=".14118" offset="0"/>
   <stop stop-opacity=".10196" offset=".080768"/>
   <stop stop-opacity=".066667" offset=".16725"/>
   <stop stop-opacity=".039216" offset=".30969"/>
   <stop stop-opacity=".027451" offset=".42415"/>
   <stop stop-opacity=".011765" offset=".69122"/>
   <stop stop-opacity="0" offset="1"/>
  </linearGradient>
 </defs>
 <g transform="translate(-248.74 -472.47)">
  <g transform="matrix(1.25 0 0 -1.25 -371.64 680.55)">
   <path transform="matrix(.52479 0 0 .52479 452.79 28.673)" d="m131.78 180.41c1.7331-1.1736 3.5212-2.0677 5.3644-2.6824 1.8432-0.61473 3.7148-0.92209 5.6148-0.92209 4.3589 0 8.0158 1.4111 10.971 4.2332 2.9562 2.8501 4.5368 6.4546 4.742 10.814 0.21293 4.5266-0.91546 8.159-3.3852 10.897-2.4418 2.7383-5.8003 4.1074-10.075 4.1075-1.8163-0.00004-3.7474-0.36329-5.7933-1.0897-2.0447-0.69858-4.0912-1.7324-6.1395-3.1016-0.17948-2.6266-0.38457-5.798-0.61529-9.5142-0.20153-3.6884-0.42926-7.9355-0.68328-12.742m-0.48959-5.9516c-0.0556-0.58678-0.11374-1.2294-0.17451-1.928-0.0329-0.69855-0.0802-1.7045-0.14198-3.0177-0.1775-3.7722-0.15511-6.8597 0.0671-9.2628 0.24886-2.4309 0.71502-4.4008 1.3985-5.9097-1.2597-0.64265-2.3711-1.1037-3.3343-1.3831-0.96319-0.2794-1.8918-0.41911-2.786-0.41913-1.2294 0.00002-2.0792 0.3493-2.5493 1.0478-0.47009 0.69856-0.66176 1.9699-0.57498 3.8141 0.092 1.956 0.50041 6.7759 1.2252 14.46 0.75271 7.684 1.2645 14.404 1.5353 20.16 0.28395 6.0354 0.32336 10.436 0.11821 13.203-0.20385 2.7942-0.64092 5.0854-1.3112 6.8737 0.62392 0.19555 1.2312 0.33526 1.822 0.41913 0.59204 0.11172 1.2234 0.16761 1.894 0.16765 1.425-0.00004 2.5236-0.4052 3.2958-1.2155 0.77218-0.81035 1.152-1.942 1.1396-3.3949 2.1094 1.4809 4.3561 2.6125 6.74 3.3949 2.4132 0.81028 4.7514 1.2154 7.0147 1.2155 5.6722-0.00004 10.32-1.8861 13.942-5.6582 3.6226-3.7722 5.3018-8.4664 5.0376-14.083-0.284-6.0355-2.6781-11.191-7.1822-15.466-4.4763-4.2751-9.7182-6.4127-15.726-6.4127-2.2913 0-4.3604 0.26545-6.2076 0.79634-1.8179 0.55884-3.5654 1.425-5.2426 2.5986"/>
   <path transform="matrix(.52479 0 0 .52479 454.44 28.673)" d="m87.429 196.38c1.8297-0.30739 3.8443-0.54489 6.0438-0.71252 2.2288-0.13973 4.6285-0.20959 7.1992-0.20956 3.4927-0.00003 5.841 0.3213 7.0448 0.96399 1.2038 0.64264 1.8451 1.8022 1.924 3.4788 0.11959 2.5427-0.66591 4.5545-2.3566 6.0355-1.6907 1.4809-4.0589 2.2214-7.1045 2.2214-3.2413-0.00004-5.9863-1.0339-8.2351-3.1016s-3.754-4.9597-4.5157-8.676m23.618-16.472c0.5792-0.75444 0.99274-1.467 1.2406-2.1376 0.27708-0.64267 0.40119-1.2714 0.37231-1.8861-0.071-1.5089-1.2612-2.7523-3.5705-3.7302-2.2801-0.95002-5.2363-1.425-8.8688-1.425-6.6781 0-11.832 1.8162-15.461 5.4487-3.5999 3.6604-5.2487 8.7039-4.9464 15.131 0.305 6.4825 2.4542 11.777 6.4475 15.885 4.0226 4.1354 9.0237 6.2031 15.003 6.2031 4.6104-0.00004 8.3347-1.3133 11.173-3.9398 2.8382-2.6266 4.1614-5.9796 3.9695-10.059-0.15123-3.2134-1.4885-5.5046-4.0118-6.8737-2.5233-1.3692-6.7329-2.0538-12.629-2.0537-2.2074-0.00002-4.4116 0.0698-6.6124 0.20957-2.1716 0.16763-4.3259 0.40513-6.463 0.71251l-0.0276-0.58678c-0.20509-4.359 0.91788-7.8098 3.3689-10.352 2.451-2.5427 5.8839-3.8141 10.299-3.8141 2.0677 0 3.9942 0.26545 5.7795 0.79635 1.7866 0.55883 3.432 1.3831 4.9363 2.4729"/>
   <path transform="matrix(.52479 0 0 .52479 450.92 28.673)" d="m183.27 172.86c-1.1187-0.61472-2.1882-1.0758-3.2086-1.3831-1.0191-0.27942-2.0176-0.41913-2.9955-0.41913-1.2853 0-2.1497 0.3353-2.5932 1.0059-0.44216 0.69854-0.61063 2.1655-0.50546 4.4008 0.025 0.53089 0.4005 4.6523 1.1266 12.364 0.75402 7.712 1.2993 15.144 1.6359 22.298 0.32339 6.8737 0.38861 11.526 0.19561 13.957-0.19299 2.4309-0.63317 4.3589-1.3205 5.784 1.2597 0.6426 2.3711 1.1036 3.3343 1.3831 0.99111 0.27936 1.9058 0.41907 2.744 0.41913 1.2853-0.00006 2.161-0.39125 2.6272-1.1736 0.46744-0.75449 0.6499-2.2214 0.54737-4.4008-0.0145-0.30742-0.24276-2.4869-0.68484-6.5384-0.41286-4.0237-0.75191-7.9635-1.0171-11.819 2.2784 1.5088 4.4971 2.6405 6.6562 3.3949 2.1883 0.78233 4.3024 1.1735 6.3422 1.1736 4.6663-0.00004 8.2304-1.453 10.692-4.3589 2.4911-2.878 3.615-6.9017 3.3719-12.071-0.0461-0.97799-0.1669-2.6545-0.36238-5.0295-0.19433-2.3471-0.32429-4.2192-0.38998-5.6163-0.17752-3.7722-0.15794-6.6222 0.0588-8.5502 0.24587-1.9001 0.73043-3.4788 1.4537-4.7362-1.3156-0.64267-2.4696-1.1177-3.462-1.425-0.99246-0.30736-1.8659-0.46104-2.6203-0.46104-1.3133 0-2.2063 0.32133-2.679 0.96399-0.44349 0.67061-0.61921 1.9839-0.52715 3.9398 0.0604 1.2853 0.25734 3.6883 0.59065 7.209 0.33327 3.5207 0.55316 6.4126 0.65968 8.676 0.26684 5.6722-0.2424 9.6958-1.5277 12.071-1.2841 2.403-3.5607 3.6045-6.8299 3.6045-1.7604-0.00003-3.5498-0.32137-5.3683-0.96399-1.7906-0.6427-3.8949-1.7185-6.313-3.2273-0.21696-2.2354-0.4099-4.5546-0.57883-6.9575-0.14106-2.403-0.27065-4.8619-0.38896-7.3767-0.21826-4.6384-0.22825-8.1171-0.03-10.436 0.22618-2.3192 0.68164-4.2192 1.3664-5.7002"/>
   <path transform="matrix(.52479 0 0 .52479 449.39 28.673)" d="m231.64 172.95c-1.2038-0.64267-2.3438-1.1177-3.4201-1.425-1.0763-0.30736-2.1034-0.46104-3.0813-0.46104-1.3692 0-2.2881 0.36324-2.7569 1.0897-0.43952 0.75443-0.60669 2.2493-0.50152 4.4847 0.0605 1.2853 0.32163 4.1633 0.78345 8.6341 0.46181 4.4707 0.76832 8.3127 0.91951 11.526 0.16432 3.4927 0.13011 6.3288-0.10265 8.5083-0.23277 2.1794-0.69021 4.0376-1.3723 5.5744 1.0628 0.61469 2.1462 1.0757 3.2504 1.3831 1.1055 0.33526 2.1892 0.50291 3.251 0.50295 1.2853-0.00004 2.1504-0.32137 2.5952-0.96399 0.44608-0.61476 0.62903-1.7744 0.54885-3.4788-0.0211-0.44711-0.26182-2.892-0.72231-7.3348-0.46052-4.4428-0.78477-8.662-0.97276-12.658-0.17617-3.7442-0.14047-6.8458 0.1071-9.3047 0.27548-2.4589 0.76694-4.4847 1.4744-6.0774m2.1395 52.601c-0.075-1.5927-0.69625-2.92-1.8639-3.9817-1.1676-1.0618-2.6037-1.5927-4.3081-1.5927-1.4809-0.00005-2.6348 0.41908-3.4615 1.2574-0.82677 0.83821-1.2066 1.9699-1.1396 3.395 0.0736 1.5647 0.6949 2.8919 1.8638 3.9817 1.1702 1.1176 2.5517 1.6765 4.1444 1.6765 1.453-0.00006 2.6195-0.44713 3.4995-1.3412 0.90793-0.89419 1.3297-2.0258 1.2653-3.3949"/>
   <path transform="matrix(.52479 0 0 .52479 447.69 28.673)" d="m248.54 196.38c1.8297-0.30739 3.8443-0.54489 6.0438-0.71252 2.2288-0.13973 4.6285-0.20959 7.1992-0.20956 3.4927-0.00003 5.841 0.3213 7.0448 0.96399 1.2038 0.64264 1.8451 1.8022 1.924 3.4788 0.1196 2.5427-0.66591 4.5545-2.3566 6.0355-1.6907 1.4809-4.0588 2.2214-7.1045 2.2214-3.2413-0.00004-5.9863-1.0339-8.2351-3.1016s-3.754-4.9597-4.5157-8.676m23.618-16.472c0.57919-0.75444 0.99274-1.467 1.2406-2.1376 0.27709-0.64267 0.40119-1.2714 0.37231-1.8861-0.071-1.5089-1.2612-2.7523-3.5705-3.7302-2.2801-0.95002-5.2363-1.425-8.8688-1.425-6.6781 0-11.832 1.8162-15.461 5.4487-3.5999 3.6604-5.2487 8.7039-4.9464 15.131 0.305 6.4825 2.4542 11.777 6.4475 15.885 4.0226 4.1354 9.0237 6.2031 15.003 6.2031 4.6104-0.00004 8.3347-1.3133 11.173-3.9398 2.8382-2.6266 4.1614-5.9796 3.9695-10.059-0.15123-3.2134-1.4885-5.5046-4.0118-6.8737-2.5233-1.3692-6.7329-2.0538-12.629-2.0537-2.2074-0.00002-4.4116 0.0698-6.6124 0.20957-2.1716 0.16763-4.3259 0.40513-6.463 0.71251l-0.0276-0.58678c-0.20509-4.359 0.91788-7.8098 3.3689-10.352 2.451-2.5427 5.8839-3.8141 10.299-3.8141 2.0677 0 3.9942 0.26545 5.7795 0.79635 1.7866 0.55883 3.432 1.3831 4.9363 2.4729"/>
   <path d="m382.66 292.66v0.002c-9.0637 0.00006-16.813 2.7342-22.861 8.2598l-0.004 0.004h-0.002c-6.0459 5.4933-9.299 12.816-9.709 21.531-0.38701 8.2256 2.0242 15.252 7.248 20.615 5.2269 5.3668 12.307 8.0664 20.797 8.0664 5.0404-0.00001 9.7592-1.0378 14.037-3.1641a1.8752 1.8752 0 0 0 0.006 -0.004c4.3014-2.1557 8.1849-5.3616 11.623-9.5488l0.002-0.002c1.8975-2.2878 3.3874-5.0318 4.5273-8.1543l0.004-0.01c1.1738-3.1236 1.8708-6.2967 2.0234-9.5391 0.37487-7.9687-2.1174-14.836-7.334-20.115l-0.002-0.002c-5.1873-5.2831-12.108-7.9394-20.355-7.9395zm-1.4453 11.016v0.002c5.2516 0.00004 9.1287 1.615 12.131 4.8965a1.8752 1.8752 0 0 0 0.0137 0.0156c3.0367 3.2523 4.4402 7.3602 4.1855 12.773-0.26151 5.5573-2.1026 9.8918-5.5859 13.371-3.4455 3.4429-7.5742 5.1152-12.814 5.1152-5.1083 0.00001-8.9966-1.5771-12.074-4.8027l-0.002-0.004-0.004-0.006c-3.079-3.2678-4.4939-7.2644-4.252-12.406 0.27745-5.8972 2.1211-10.392 5.4824-13.814 3.4034-3.4629 7.5681-5.1406 12.92-5.1406z" transform="matrix(.41983 0 0 -.41983 465.16 264.57)"/>
   <path d="m531.33 293.17c-7.91 0.00005-14.746 2.8398-20.096 8.3398a1.8752 1.8752 0 0 1 0 0.002c-5.3154 5.4673-8.2147 12.59-8.6133 21.062-0.39538 8.4032 1.8465 15.329 6.7461 20.311a1.8752 1.8752 0 0 0 0.0117 0.01c4.9414 4.9458 11.938 7.3457 20.623 7.3457 4.6975 0 8.6269-0.57502 11.812-1.9023a1.8752 1.8752 0 0 0 0.01 -0.004c1.6044-0.67947 2.921-1.4881 3.9102-2.5332 0.98915-1.0451 1.6194-2.3864 1.6856-3.793 0.0503-1.0693-0.18597-2.1297-0.61133-3.1309-0.38583-1.0262-0.96194-2.0528-1.7656-3.0996a1.8752 1.8752 0 0 0 -2.5879 -0.37695c-1.7123 1.2404-3.5745 2.1702-5.6172 2.8105-2.0295 0.60215-4.2509 0.89649-6.6797 0.89649-5.159 0-8.8703-1.4208-11.541-4.1914-2.4196-2.51-3.5095-5.9141-3.5527-10.268 1.9805 0.25039 3.9604 0.50933 5.9648 0.66407a1.8752 1.8752 0 0 0 0.0234 0c2.7859 0.17692 5.5983 0.27932 8.4023 0.27929 7.5166 0.00003 12.985-0.80323 16.674-2.8047 3.6833-1.9986 5.7672-5.6655 5.9785-10.154 0.26111-5.5514-1.6395-10.416-5.5586-14.043-3.917-3.6247-9.1003-5.4199-15.219-5.4199zm-1.3672 10.312c3.5042 0.00005 5.9351 0.82329 7.6309 2.3086 1.7031 1.4919 2.4608 3.3028 2.332 6.041-0.0776 1.6493-0.49918 2.2726-1.4336 2.7715-0.84875 0.45314-3.6551 0.98832-7.9043 0.98828-3.1662 0.00004-6.1436-0.0982-8.8828-0.26953-1.9061-0.14526-3.5222-0.37005-5.1738-0.58789 0.9673-3.2862 2.3451-6.0019 4.3887-7.8809 2.4758-2.2764 5.387-3.371 9.043-3.3711z" transform="matrix(.41983 0 0 -.41983 466.52 264.57)"/>
   <path d="m336.85 215.09c-1.2724-0.00006-2.467-0.52217-3.6516-1.3188a1.5002 1.5002 0 0 1 -0.0156 -0.009c-1.1689-0.80781-2.2757-1.9006-3.3562-3.275a1.5002 1.5002 0 0 1 0.16094 -2.0297c0.3285-0.30324 1.2119-1.6396 2.1547-3.7641 0.94277-2.1245 2.044-5.0639 3.2828-8.7938a1.5002 1.5002 0 0 1 0.003 -0.005c1.791-5.3438 3.2911-9.6508 4.55-12.93 1.5107-3.9915 2.9247-7.0807 4.275-9.3078 0.67356-1.111 1.3005-1.9786 1.9688-2.6391 0.66827-0.66043 1.4388-1.2094 2.4719-1.2094 1.6082 0 2.9263 0.96525 4.2734 2.375 1.3466 1.4092 2.7591 3.3964 4.3234 6.0078l0.002 0.002c2.5586 4.2548 5.1007 9.8564 7.6359 16.242 1.6371-7.2496 3.1905-13.19 4.6453-16.977 0.88844-2.3125 1.776-4.089 2.7703-5.3922 0.99426-1.3032 2.2256-2.2578 3.725-2.2578 1.7222 0 3.0707 1.0576 4.7 2.6422a1.5002 1.5002 0 0 1 0.011 0.011c1.6269 1.6108 3.4143 3.8434 5.4234 6.7375l0.003 0.005c4.1411 5.9212 7.4383 11.481 9.8781 16.722a1.5002 1.5002 0 0 0 0.002 0.002c2.4374 5.2614 3.7884 9.5055 3.9484 12.905 0.0847 1.8012-0.36863 3.4444-1.4875 4.5828-1.1188 1.1659-2.7601 1.675-4.6031 1.675-0.58477-0.00005-1.213-0.0478-1.8672-0.14062a1.5002 1.5002 0 0 1 -0.011 0c-0.6664-0.0993-1.3895-0.27576-2.2359-0.50625a1.5002 1.5002 0 0 1 -1.0141 -1.9625c0.25799-0.70363 0.42642-1.4106 0.51407-2.1094a1.5002 1.5002 0 0 1 0.009 -0.061c0.11014-0.65896 0.14568-1.373 0.10625-2.2125-0.13398-2.8466-0.86019-6.0893-2.2469-9.6875a1.5002 1.5002 0 0 1 -0.002 -0.006c-1.3569-3.567-3.4024-7.5888-6.1203-12.055-1.0388-1.6732-1.969-3.0283-2.7625-4.0656-0.13023-0.17024-0.18393-0.22384-0.29531-0.36407-0.003 0.007-0.004 0.007-0.008 0.0141-0.46463 0.91203-1.0744 2.4108-1.775 4.4266l-0.002 0.003c-1.3935 4.0416-2.6212 8.8789-3.6578 14.462l-0.003 0.006c-0.17506 0.96437-0.39938 2.2724-0.68281 3.9437v0.002c-0.4817 2.8672-1.0536 5.0596-1.8344 6.6844-0.3905 0.81264-0.83423 1.4952-1.4312 2.0328-0.59702 0.53756-1.4079 0.90779-2.2438 0.90781-1.5119-0.00004-2.8332-0.96725-3.725-2.3031-0.89178-1.3359-1.5479-3.1129-2.1078-5.4031a1.5002 1.5002 0 0 1 0 -0.003c-0.61836-2.5478-1.1835-4.6078-1.6891-6.1734a1.5002 1.5002 0 0 1 -0.002 -0.003c-1.6444-5.1422-3.615-9.759-5.8547-13.828-1.1346-2.0614-2.044-3.6008-2.7-4.5688-0.0533-0.0786-0.0719-0.0899-0.12188-0.16094-0.39689 0.77665-0.89224 1.9174-1.4859 3.5266-1.2361 3.4256-2.6312 7.9688-4.1391 13.62-0.0006 0.002-0.0008 0.007-0.002 0.009l-0.006 0.0187c-0.35157 1.4229-0.81416 3.2963-1.4 5.6344l0.003-0.0219c-0.73801 3.1264-1.5104 5.5102-2.4234 7.2438-0.45651 0.86678-0.94652 1.5809-1.5656 2.1391-0.6191 0.55821-1.4365 0.96092-2.3125 0.96094z" transform="matrix(.52479 0 0 .52479 465.84 28.413)"/>
   <path d="m258.63 214.84c-0.65544-0.00004-1.3186-0.0518-1.9891-0.18281-0.64936-0.10506-1.2707-0.28413-1.875-0.49219a1.5002 1.5002 0 0 1 -0.90624 -1.9688c0.51492-1.3028 0.88096-2.8459 1.0594-4.6297 0.17642-1.7639 0.19016-4.427 0.025-7.9375-0.20209-4.2954-0.5762-8.9712-1.1187-14.003a1.5002 1.5002 0 0 1 0 -0.008c-0.51618-5.0307-0.80483-7.8104-0.85-8.7703-0.10303-2.1899-0.0532-3.7418 0.81562-5.0328a1.5002 1.5002 0 0 1 0.0422 -0.0594c0.88634-1.1903 2.3831-1.6344 4.0156-1.6344 1.19 0 2.3774 0.18836 3.5672 0.52812 1.2113 0.33799 2.4267 0.82328 3.6469 1.4484a1.5002 1.5002 0 0 1 0.65782 2.0062c-0.78425 1.569-1.3654 3.7008-1.6953 6.3734-0.00018 0.002 0.00017 0.003 0 0.005-0.30232 2.6796-0.37418 6.0914-0.17969 10.225 0.0559 1.1882 0.16314 2.4233 0.30469 3.6844a1.5002 1.5002 0 0 0 0 0.002c0.13224 1.1927 0.28055 2.3326 0.45156 3.4562 1.4611 2.3215 2.9022 4.1063 4.25 5.2562a1.5002 1.5002 0 0 1 0.0125 0.009c1.4148 1.2313 2.559 1.6937 3.4219 1.6938 0.57561-0.00002 0.92027-0.1523 1.2766-0.49218a1.5002 1.5002 0 0 1 0.0234 -0.0219c0.38065-0.34741 0.81063-1.007 1.1453-2.0641a1.5002 1.5002 0 0 1 2.2781 -0.78281c1.3932 0.95868 2.4978 1.9501 3.2922 3.0297 0.82629 1.1106 1.3271 2.3514 1.3875 3.6359 0.0859 1.8265-0.62118 3.5766-1.9734 4.8188-1.323 1.2683-3.0878 1.9078-4.9609 1.9078-2.2417-0.00005-4.4622-0.8949-6.6078-2.4781l-0.002-0.002c-1.1603-0.84165-2.328-1.9358-3.5141-3.2-0.0211 1.5816-0.37109 3.0235-1.3672 4.0359-1.1198 1.1668-2.7699 1.6437-4.6344 1.6438z" transform="matrix(.52479 0 0 .52479 464.31 28.413)"/>
   <path d="m257.4 212.17c-0.16157 0.003-0.32213 0.0142-0.48319 0.0396-0.39377 0.0625-1.1249 0.0889-1.0929 0.48574 0.0366 0.44966 0.68034 0.17021 0.98366 0.21848 1.0985 0.1763 2.0136 0.95216 2.9967 1.4745 0.34245 0.1819 0.74994 0.29063 1.0111 0.57871 0.57669 0.63461 1.0121 1.4968 1.0553 2.3469 0.12295 2.4012-0.11991 5.717-0.0925 7.8484-0.74436 0.7596-1.3637 0.96588-1.9739 1.4862 0.92574 1.3261 2.2773 3.172 3.831 4.2959 3.2899 2.3809 10.271 3.7619 11.03 4.2959 0.38565 0.27132 0.51875 0.81853 0.67525 1.2723 0.22711 0.65492 0.33279 1.3556 0.36938 2.0481 0.0122 0.21747-0.0376 0.43391-0.0462 0.65036-0.0493 1.2453 0.2388 2.5232-0.0315 3.738-0.1697 0.76518-0.46592 1.5187-0.59548 2.2996-0.0508 0.30586 0.0132 0.62951-0.0696 0.92878-0.0874 0.31704-0.28047 0.59548-0.44153 0.88255-0.14278 0.25455-0.25354 0.68643-0.46439 0.74283-0.72199 0.19307-1.7433-0.00089-2.607 0.10212-1.7773 0.21137-3.5094 0.70777-5.2648 1.0589-0.64527 0.12956-1.3007 0.21746-1.9368 0.38564-2.4327 0.64375-4.6582 2.1614-7.1661 2.3778-0.52181 0.0453-1.0309-0.22863-1.5548-0.23219-0.34753-0.003-0.68896 0.0849-1.0314 0.13769-1.3718 0.21239-2.9799-0.097-4.1008 0.72149-0.23473 0.17122-0.56702 0.50098-0.40596 0.77229 0.12245 0.20527 0.87696-0.32314 1.3348-0.40087 0.1758-0.0294 0.3577-0.0137 0.53654-0.0239 0.29927-0.0168 0.59854-0.0762 0.8983-0.061 1.4602 0.0747 3.109 0.68642 4.3233 0.74079 0.31858 0.0142 0.61327-0.2012 0.92981-0.26116 2.3382-0.44356 4.7532-0.38361 7.1051-0.71996 0.55229-0.0788 1.067-0.45271 1.9485-0.64578 1.319-0.28962 2.9368-0.46338 4.4087-0.3765 1.1137 0.065 2.1634 0.6473 3.2797 0.67372 0.70473 0.0173 1.5182-0.22507 2.0898-0.32466 0.21746 0.0635 0.50707 0.13414 0.69658 0.3018 0.46999 0.41664 0.91253 0.9984 0.95216 1.6259 0.0224 0.3577-0.25353 0.9293-0.42324 0.99027-0.30993 0.11025-1.4877-0.30181-1.9688 0.14734-0.24744 0.23119-0.0732 0.67526-0.14429 1.006-0.0275 0.12805-0.0625 0.26574-0.10976 0.3765-0.0402 0.0955-0.0915 0.16463-0.10924 0.25507-0.0402 0.20882 0.0894 0.43899 0.0152 0.63764-0.13618 0.13973-0.41664 0.22052-0.44001 0.41918-0.0366 0.30384 0.5213 0.65441 0.64375 1.0446 0.0884 0.28199-0.002 0.59497 0.0487 0.88611 0.063 0.36989 0.16716 0.75248 0.31552 1.0812 0.80177 1.7702 3.3361 2.3037 4.7003 1.9551 0.879-0.22407 1.6188-0.67729 2.0644-1.3236 0.7286-1.0563 0.48574-2.5501 0.25557-3.6069 1.008-0.25506 1.286-1.4846 1.3962-2.4053 0.1133-0.94556-0.36431-1.8947-0.81092-2.7406 0.12957 0.0519 0.2759-0.18951 0.41003-0.17376 0.85004-0.0605 1.7179-0.17987 2.5394-0.42984 1.2484-0.38056 2.322-1.2276 3.5698-1.6106 0.80532-0.24693 1.6528-0.34296 2.4907-0.4334 1.16-0.12499 2.3377-0.0163 3.4967-0.14938 2.2569-0.26064 4.4366-1.04 6.6971-1.2667 0.21595-0.0218 0.43645 0.0275 0.65087-0.009 0.18443-0.031 0.35261-0.12855 0.53299-0.17732 0.86324-0.23373 1.7443-0.40089 2.6243-0.55738 0.59295-0.10467 1.1864-0.24642 1.788-0.25506 0.70015-0.0102 1.7341 0.26116 2.0867 0.23677 0.17477-0.0122 0.26572-0.17936 0.1824-0.26776-0.42528-0.44865-1.8586-0.71591-2.6116-0.95877 0.0366-0.0732 0.10975-0.18138 0.0487-0.20679-0.87442-0.3643-2.39-0.25709-3.5465-0.0117-0.62952 0.13311-1.1549 0.8038-1.761 0.78957-2.0161-0.0488-4.145-0.33077-6.218-0.48675-0.38462-0.0294-0.76924-0.1067-1.1544-0.0844-0.89882 0.0508-1.758 0.41308-2.6543 0.50199-1.0208 0.10112-2.0552-0.0483-3.078 0.032-0.8221 0.065-1.6371 0.21239-2.4485 0.36278-0.36837 0.0681-0.74029 0.3577-1.098 0.2449-0.20476-0.065-0.31095-0.3013-0.43442-0.4776-0.6158-0.87849-1.1427-1.8378-1.4963-2.8504-0.26623-0.7601-0.48929-1.569-0.45423-2.3738 0.0386-0.87646 0.31146-1.7549 0.71997-2.5313 0.35566-0.67575 1.0695-1.1102 1.4628-1.7651 0.33585-0.55941 0.28961-1.348 0.74282-1.8108 2.263-2.3098 4.0861-5.2262 6.0839-7.8952 0.17886-0.2383 0.57669-0.25151 0.76621-0.48777 0.0981-0.12194 0.0681-0.31654 0.16309-0.44102 0.28809-0.37954 0.84038-0.48319 1.1605-0.83581 0.1448-0.15903 0.15903-0.42171 0.32569-0.55737 0.11381-0.0925 0.28605-0.0757 0.41764-0.13922 1.0416-0.50454 2.1218-1.0518 2.9027-1.9043 1.7646-1.9272 3.9707-4.7837 5.5498-6.5716 0.0874-0.0991 0.27183-0.0717 0.37142-0.16259 0.17682-0.16055 0.22153-0.42426 0.34804-0.62698 0.59497-0.95216 1.4171-1.7646 1.9277-2.763 0.10365-0.20273-0.094-0.4207-0.25557-0.53451-0.19104-0.13363-0.46795-0.0229-0.69659-0.0691-0.12753-0.0259-0.24287-0.10314-0.37192-0.11635-0.22407-0.0224-0.44763 0.0554-0.67271 0.0696-0.28606 0.0188-0.62242-0.13718-0.85918 0.0234-0.3074 0.20831-0.36227 0.6595-0.44102 1.0218-0.0671 0.30231 0.0986 0.64425-0.0239 0.92878-0.0513 0.12042-0.19815 0.17478-0.27844 0.27894-0.13108 0.17021-0.15801 0.42781-0.32517 0.55687-2.1594 1.6721-5.4335 3.1349-6.7804 4.4351-0.44153-0.30181-1.3459-1.6681-2.2295-1.509-1.1605 1.0914-2.7168 4.1099-4.1562 5.8283-0.80939 0.96639-1.8794 1.7158-2.9723 2.3453-1.5324 0.88205-3.2045 2.0898-4.3421 3.0419-0.37446 0.31348-0.97553 0.21593-1.4628 0.16258-0.54517-0.0599-1.0218-0.41104-1.5563-0.53451-1.2235-0.28199-2.5262-0.14023-3.7385-0.46388-2.6934-0.71997-6.3623-1.7184-8.3362-2.2991-0.10365-0.0305-0.22407 0.0884-0.32518 0.0468-0.17834-0.0742-0.27386-0.28606-0.34804-0.4649-0.3958-0.95318-0.19866-2.0613-0.44102-3.0653-0.18495-0.76315-0.54874-1.4186-0.7662-2.2285-0.50809-1.8901-0.9359-3.9199-1.1361-5.9187-0.0793-0.78957 0.36175-2.0258-0.0244-2.3809-0.30384-0.27895-0.76468-0.14531-1.19-0.13363-0.86274 0.0244-1.7143 0.29062-2.5018 0.32822-1.1402 0.0137-2.2757-0.46795-3.4037-0.45271zm24.742 42.111c0.67373 0.39479 0.81294 2.2524 0.46439 2.6009-0.16259-0.32517-0.34855-0.81294-0.76619-1.254 0.093-0.48726 0.13921-0.95216 0.3018-1.347z" fill-rule="evenodd" transform="matrix(.52479 0 0 .52479 447.69 28.673)"/>
  </g>
  <path d="m789.89 412.56c-4.4553 0.00001-8.171 1.416-10.914 4.2324-2.7414 2.8148-4.0058 6.5017-3.8027 10.818 0.21517 4.5735 1.9229 8.418 5.0957 11.301l0.002 0.002c3.1738 2.8997 7.2416 4.334 11.998 4.334v0.002c4.3279-0.00003 7.9594-1.3954 10.682-4.168h0.002c2.7376-2.7705 4.0444-6.3748 3.8477-10.557-0.0801-1.7015-0.44456-3.3666-1.0606-5.0059l-0.004-0.006c-0.59823-1.6387-1.3792-3.0787-2.375-4.2793h-0.002c-1.8043-2.1974-3.8423-3.8804-6.0996-5.0117a0.98407 0.98407 0 0 1 -0.002 -0.002c-2.245-1.1158-4.722-1.6602-7.3672-1.6602zm81.402 0.4707c-4.558 0-8.2291 1.26-10.822 3.8555a0.98407 0.98407 0 0 0 -0.006 0.006c-2.5712 2.6144-3.7485 6.2483-3.541 10.658 0.20918 4.4462 1.7301 8.1836 4.5195 11.053a0.98407 0.98407 0 0 0 0 0.002c2.8076 2.8863 6.3958 4.3769 10.547 4.377v-0.002c3.2108-0.00002 5.9307-0.94155 7.9863-2.8438 2.0567-1.9033 3.053-4.4558 2.916-7.3691-0.11087-2.3556-1.2038-4.2793-3.1367-5.3281-1.9357-1.0503-4.8054-1.4727-8.75-1.4727-1.4715-0.00002-2.9482 0.0536-4.4102 0.14648a0.98407 0.98407 0 0 0 -0.0117 0c-1.0519 0.0812-2.0915 0.21821-3.1309 0.34961 0.0227-2.2846 0.59548-4.0714 1.8652-5.3887 1.4015-1.454 3.3492-2.1992 6.0566-2.1992 1.2746 0 2.4408 0.15275 3.5059 0.46875 1.072 0.33605 2.0487 0.82561 2.9473 1.4766a0.98407 0.98407 0 0 0 1.3574 -0.19922c0.42177-0.54937 0.72526-1.0884 0.92774-1.627 0.22322-0.52539 0.34671-1.0814 0.32031-1.6426-0.0347-0.73816-0.36567-1.4418-0.88476-1.9902-0.5191-0.54846-1.2108-0.9735-2.0527-1.3301a0.98407 0.98407 0 0 0 -0.004 -0.002c-1.6718-0.69656-3.734-0.99805-6.1992-0.99805zm-50.254 0.002c-0.6777 0-1.1827 0.35973-1.6211 0.79296-0.43838 0.43324-0.84918 1.0017-1.291 1.7305-0.88578 1.461-1.8137 3.4871-2.8047 6.1055-0.82583 2.1509-1.8095 4.977-2.9844 8.4824a0.98407 0.98407 0 0 1 -0.002 0.002c-0.81264 2.4467-1.5358 4.3759-2.1543 5.7695-0.61846 1.3936-1.1986 2.2698-1.4141 2.4688a0.98407 0.98407 0 0 0 -0.10546 1.332c0.70879 0.90156 1.4364 1.6185 2.2031 2.1484a0.98407 0.98407 0 0 0 0.01 0.006c0.77707 0.52254 1.5599 0.86519 2.3945 0.86523 0.57464-0.00001 1.1095-0.26468 1.5156-0.63086 0.40612-0.36617 0.72788-0.83375 1.0274-1.4023 0.59891-1.1372 1.1057-2.7011 1.5898-4.752l-0.002 0.0156c0.3843-1.5337 0.68734-2.7639 0.91797-3.6973l0.004-0.0117c0.00079-0.001 0.002-0.005 0.002-0.006 0.9891-3.7073 1.904-6.6884 2.7148-8.9356 0.38946-1.0556 0.71426-1.803 0.97461-2.3125 0.0328 0.0466 0.0451 0.0539 0.0801 0.10547 0.43031 0.63498 1.0272 1.6438 1.7715 2.9961 1.4692 2.6692 2.7612 5.6991 3.8398 9.0723a0.98407 0.98407 0 0 1 0.002 0.002c0.33164 1.027 0.70179 2.3775 1.1074 4.0488a0.98407 0.98407 0 0 1 0 0.002c0.36731 1.5023 0.79782 2.6686 1.3828 3.5449 0.58499 0.87632 1.4516 1.5097 2.4434 1.5098 0.54829-0.00001 1.081-0.24112 1.4727-0.59375 0.39163-0.35264 0.68329-0.80091 0.93945-1.334 0.51219-1.0659 0.88714-2.504 1.2031-4.3848v-0.002c0.18592-1.0963 0.33243-1.9533 0.44726-2.5859l0.002-0.006c0.68003-3.6627 1.4863-6.8351 2.4004-9.4863v-0.002c0.45959-1.3223 0.85927-2.306 1.1641-2.9043 0.003-0.005 0.004-0.003 0.006-0.008 0.0731 0.092 0.10793 0.12661 0.19336 0.23828 0.52054 0.68048 1.1311 1.5684 1.8125 2.666 1.7829 2.9296 3.1255 5.5683 4.0156 7.9082a0.98407 0.98407 0 0 0 0 0.004c0.90965 2.3604 1.3867 4.4882 1.4746 6.3555 0.0259 0.5507 0.002 1.0189-0.0703 1.4512a0.98407 0.98407 0 0 0 -0.006 0.0391c-0.0575 0.45835-0.1667 0.9232-0.33594 1.3848a0.98407 0.98407 0 0 0 0.66406 1.2871c0.55526 0.1512 1.0297 0.2669 1.4668 0.33203a0.98407 0.98407 0 0 0 0.008 0c0.42913 0.0609 0.84101 0.0918 1.2246 0.0918 1.209-0.00003 2.2856-0.33286 3.0195-1.0977 0.73396-0.74676 1.0321-1.8263 0.97657-3.0078-0.10496-2.2298-0.99097-5.0134-2.5898-8.4648a0.98407 0.98407 0 0 0 -0.002 0c-1.6005-3.4379-3.764-7.0865-6.4805-10.971l-0.002-0.002c-1.318-1.8984-2.4894-3.3632-3.5566-4.4199a0.98407 0.98407 0 0 0 -0.008 -0.008c-1.0688-1.0394-1.9542-1.7324-3.084-1.7324-0.98357 0-1.7911 0.62558-2.4434 1.4805-0.65222 0.85489-1.2336 2.0202-1.8164 3.5371-0.95433 2.4838-1.973 6.3811-3.0469 11.137-1.6631-4.189-3.3314-7.8632-5.0098-10.654l-0.002-0.002c-1.0262-1.7131-1.9526-3.017-2.8359-3.9414-0.88369-0.92477-1.7478-1.5566-2.8027-1.5566zm-159.14 0.1289-4.2988 1.5391c0.49376 5.0406 0.8282 9.4487 1.0059 13.225 0.18626 3.9591 0.2127 6.8455 0.0781 8.6602-0.13372 1.8329-0.41968 3.3367-0.85937 4.5098 0.40928 0.12827 0.80586 0.22037 1.1934 0.27539 0.38837 0.0733 0.80423 0.10935 1.2441 0.10937 0.93479-0.00002 1.6556-0.26534 2.1621-0.79687 0.50653-0.53158 0.75427-1.2754 0.74609-2.2285 1.3837 0.97143 2.858 1.7153 4.4219 2.2285 1.583 0.53153 3.1169 0.79685 4.6016 0.79687 3.7208-0.00002 6.7701-1.2365 9.1465-3.7109 2.3764-2.4745 3.478-5.5541 3.3047-9.2383-0.1863-3.9592-1.7582-7.3421-4.7129-10.146-2.9364-2.8044-6.3737-4.2051-10.314-4.2051-1.503 0-2.8606 0.17323-4.0723 0.52148-1.1925 0.36659-2.3393 0.93525-3.4394 1.7051-0.0365-0.38491-0.0754-0.80739-0.11524-1.2656-0.0216-0.45824-0.0513-1.117-0.0918-1.9785zm97.635 0.0742c-1.0709 0-2.0533 0.29143-2.6348 1.0723a0.98407 0.98407 0 0 0 -0.0274 0.0391c-0.56993 0.84685-0.60274 1.8662-0.53515 3.3027 0.0296 0.62971 0.21999 2.4519 0.55859 5.752a0.98407 0.98407 0 0 0 0 0.006c0.3559 3.3009 0.59986 6.3678 0.73242 9.1855 0.10835 2.3028 0.10011 4.0499-0.0156 5.207-0.11703 1.1702-0.35754 2.1825-0.69531 3.0371a0.98407 0.98407 0 0 0 0.5957 1.291c0.39643 0.13648 0.80255 0.25335 1.2285 0.32226 0.43981 0.0859 0.87474 0.12107 1.3047 0.1211 1.223-0.00003 2.3064-0.31271 3.041-1.0781 0.65342-0.66412 0.88264-1.611 0.89648-2.6484 0.77806 0.82928 1.5436 1.5475 2.3047 2.0996l0.002 0.002c0.84227 0.62149 1.7024 1.0571 2.5723 1.3262 0.006 0.15913 0.0442 0.32131-0.0176 0.46484-0.0336 0.079-0.13092 0.11527-0.18359 0.1836-0.086 0.11165-0.10324 0.28057-0.21289 0.36523-1.4165 1.0969-3.5637 2.0572-4.4473 2.9102-0.28964-0.19798-0.88328-1.0946-1.4629-0.99024-0.76125 0.71592-1.7823 2.6951-2.7266 3.8223-0.53095 0.63393-1.2323 1.1261-1.9492 1.5391-1.0052 0.57861-2.1034 1.3715-2.8496 1.9961-0.24564 0.20563-0.63935 0.14046-0.95899 0.10547-0.35762-0.0393-0.67085-0.26862-1.0215-0.34961-0.80258-0.18498-1.6559-0.0924-2.4512-0.30469-1.7668-0.47229-4.1739-1.1268-5.4688-1.5078-0.068-0.02-0.14657 0.0585-0.21289 0.0312-0.11699-0.0487-0.17986-0.18738-0.22852-0.30469-0.25964-0.62527-0.13008-1.3531-0.28906-2.0117-0.12132-0.50061-0.36126-0.92967-0.50391-1.4609-0.33329-1.2399-0.61282-2.5716-0.74414-3.8828-0.03-0.299 0.0448-0.68695 0.0723-1.0137 2.3488-0.24233 4.3029-1.0707 5.8496-2.502 1.8618-1.723 2.7294-3.9216 2.6035-6.5976-0.0992-2.1079-0.97563-3.6116-2.6309-4.5098-1.6553-0.89815-4.4177-1.3477-8.2852-1.3476-1.448-0.00002-2.8942 0.047-4.3379 0.13867-1.4245 0.10996-2.8364 0.26516-4.2383 0.46679l-0.0195-0.38476c-0.13453-2.8594 0.60312-5.123 2.2109-6.791s3.8598-2.502 6.7559-2.502c1.3564 0 2.6199 0.17322 3.791 0.52149 1.172 0.36658 2.2515 0.90819 3.2383 1.623 0.37994-0.4949 0.64988-0.96244 0.8125-1.4023 0.18176-0.42158 0.26504-0.83504 0.24609-1.2383-0.0466-0.98979-0.8289-1.8038-2.3438-2.4453-1.4957-0.62319-3.4336-0.93554-5.8164-0.93554-4.3807 0-7.7619 1.1914-10.143 3.5742-2.3615 2.4012-3.4425 5.71-3.2441 9.9258 0.20007 4.2524 1.6089 7.7255 4.2285 10.42 1.6257 1.6713 3.4964 2.8232 5.6094 3.4648-0.0429 0.0382-0.0695 0.0857-0.0645 0.14844 0.024 0.29497 0.44752 0.11091 0.64649 0.14258 0.72059 0.11565 1.3199 0.62417 1.9648 0.9668 0.22464 0.11932 0.49275 0.19188 0.66406 0.38086 0.3783 0.41629 0.66308 0.98145 0.69141 1.5391 0.0806 1.5752-0.0785 3.7503-0.0606 5.1484-0.48828 0.49828-0.89463 0.63331-1.2949 0.9746 0.60727 0.86991 1.4945 2.0811 2.5137 2.8184 2.1581 1.5618 6.7361 2.4681 7.2344 2.8184 0.25298 0.17798 0.3407 0.53635 0.44336 0.83399 0.14898 0.42961 0.21818 0.88947 0.24219 1.3438 0.008 0.14265-0.0237 0.28574-0.0293 0.42773-0.0323 0.81691 0.15583 1.6543-0.0215 2.4512-0.11133 0.50195-0.30564 0.99553-0.39063 1.5078-0.0333 0.20063 0.009 0.41306-0.0449 0.60937-0.0573 0.20797-0.18537 0.39177-0.29102 0.58008-0.0937 0.16698-0.16637 0.44933-0.30469 0.48633-0.47361 0.12665-1.1424-0.001-1.709 0.0664-1.1659 0.13866-2.3016 0.46501-3.4531 0.69532-0.42329 0.085-0.85421 0.14358-1.2715 0.2539-1.5958 0.42229-3.056 1.4166-4.7012 1.5586-0.3423 0.0297-0.6759-0.15001-1.0195-0.15235-0.22798-0.002-0.45114 0.0572-0.67578 0.0918-0.89991 0.13932-1.9562-0.0643-2.6914 0.47266-0.15398 0.11231-0.37128 0.32788-0.26562 0.50585 0.0803 0.13466 0.57469-0.21072 0.875-0.26171 0.11532-0.0193 0.2362-0.009 0.35351-0.0156 0.19632-0.011 0.39125-0.051 0.58789-0.041 0.9579 0.049 2.0394 0.45066 2.8359 0.48632 0.20898 0.009 0.40368-0.13254 0.61133-0.17187 1.5338-0.29097 3.1173-0.25202 4.6602-0.47266 0.3623-0.0517 0.69908-0.29718 1.2774-0.42383 0.86524-0.18998 1.927-0.30308 2.8926-0.24609 0.73058 0.0426 1.4201 0.42408 2.1523 0.44141 0.46229 0.0114 0.99417-0.14756 1.3691-0.21289 0.14265 0.0417 0.33272 0.0892 0.45703 0.19922 0.30831 0.2733 0.599 0.65478 0.625 1.0664 0.0147 0.23465-0.16602 0.60844-0.27734 0.64844-0.20331 0.0723-0.97539-0.19698-1.291 0.0977-0.16231 0.15165-0.0491 0.44319-0.0957 0.66015-0.018 0.084-0.0413 0.17344-0.0723 0.24609-0.0264 0.0626-0.0587 0.10865-0.0703 0.16797-0.0264 0.13699 0.0584 0.28766 0.01 0.41797-0.0893 0.0917-0.27374 0.14508-0.28907 0.27539-0.024 0.19932 0.34155 0.42957 0.42188 0.68555 0.058 0.18498-0.00006 0.3891 0.0332 0.58008 0.0413 0.24264 0.10971 0.49334 0.20703 0.70898 0.52595 1.1612 2.1871 1.5118 3.082 1.2832 0.57661-0.14699 1.0632-0.4452 1.3555-0.86915 0.47795-0.69292 0.31701-1.672 0.16602-2.3652 0.66125-0.16731 0.84369-0.97419 0.91601-1.5781 0.0743-0.62027-0.23828-1.2419-0.53125-1.7969 0.085 0.034 0.18155-0.12557 0.26954-0.11523 0.55761-0.0397 1.1271-0.11728 1.666-0.28125 0.81891-0.24964 1.5232-0.80534 2.3418-1.0566 0.52827-0.16199 1.0832-0.22583 1.6328-0.28516 0.76091-0.082 1.5347-0.0104 2.2949-0.0977 1.4805-0.17097 2.9098-0.68142 4.3926-0.83007 0.14166-0.0143 0.28513 0.0181 0.42578-0.006 0.12098-0.0203 0.23324-0.0852 0.35156-0.11719 0.56627-0.15332 1.1434-0.26258 1.7207-0.36524 0.38896-0.0687 0.77725-0.1623 1.1719-0.16797 0.45929-0.007 1.1378 0.17225 1.3691 0.15626 0.11465-0.008 0.17575-0.1178 0.1211-0.17579-0.27898-0.2943-1.2209-0.46959-1.7148-0.6289 0.024-0.048 0.0733-0.12005 0.0332-0.13672-0.57361-0.23898-1.5676-0.16683-2.3262-0.006-0.41295 0.0873-0.75862 0.52691-1.1562 0.51758-1.3225-0.032-2.7183-0.21799-4.0781-0.32031-0.2523-0.0193-0.50517-0.0693-0.75781-0.0547-0.58961 0.0333-1.1523 0.27175-1.7402 0.33008-0.66959 0.0663-1.3486-0.0331-2.0195 0.0195-0.53928 0.0426-1.0752 0.13963-1.6074 0.23828-0.24164 0.0447-0.48411 0.23415-0.71875 0.16015-0.13432-0.0426-0.20416-0.19685-0.28516-0.3125-0.40395-0.57627-0.75044-1.2049-0.98242-1.8691-0.17464-0.49861-0.31987-1.0307-0.29687-1.5586 0.0253-0.57494 0.20272-1.1509 0.4707-1.6602 0.23331-0.44328 0.70297-0.72858 0.96094-1.1582 0.22031-0.36696 0.18903-0.88387 0.48632-1.1875 1.4845-1.5152 2.6817-3.4289 3.9922-5.1797 0.11733-0.15632 0.37763-0.16337 0.50196-0.31836 0.0643-0.08 0.0451-0.2074 0.10742-0.28906 0.18898-0.24897 0.54978-0.31751 0.75976-0.54883 0.095-0.10432 0.10552-0.27624 0.21485-0.36523 0.0747-0.0607 0.18711-0.0501 0.27343-0.0918 0.68327-0.33097 1.392-0.69073 1.9043-1.25 1.1575-1.2642 2.6047-3.1377 3.6406-4.3106 0.0573-0.065 0.17881-0.0478 0.24414-0.10742 0.11599-0.10531 0.14552-0.27717 0.22851-0.41015 0.24283-0.38862 0.53942-0.74417 0.8125-1.1133 0.0176 0.00016 0.0352 0.002 0.0527 0.002 1.2287-0.00003 2.386-0.42 3.2539-1.252 0.88706-0.81485 1.3513-1.962 1.2949-3.1602-0.0396-0.8426-0.36813-1.6582-0.91016-2.3867-0.52113-0.7082-1.2462-1.3574-2.1602-1.9863a0.98407 0.98407 0 0 0 -1.4941 0.51367c-0.21954 0.69342-0.5003 1.1256-0.75 1.3535a0.98407 0.98407 0 0 0 -0.0156 0.0137c-0.23372 0.22296-0.4603 0.32421-0.83789 0.32422-0.56601-0.00002-1.316-0.30363-2.2441-1.1113a0.98407 0.98407 0 0 0 -0.01 -0.006c-0.88416-0.75437-1.8286-1.9264-2.7871-3.4492-0.11218-0.7371-0.21013-1.4832-0.29687-2.2656a0.98407 0.98407 0 0 0 0 -0.002c-0.0929-0.82726-0.16255-1.6366-0.19922-2.416-0.12759-2.7115-0.0811-4.9512 0.11718-6.709v-0.002c0.21643-1.7532 0.59883-3.1524 1.1133-4.1816a0.98407 0.98407 0 0 0 -0.43165 -1.3164c-0.80043-0.4101-1.598-0.72751-2.3926-0.94922-0.78045-0.22288-1.5593-0.34766-2.3398-0.34766zm-115.74 0.72266c-4.3807 0-7.7599 1.1914-10.141 3.5742-2.3615 2.4012-3.4444 5.71-3.2461 9.9258 0.20008 4.2524 1.6109 7.7255 4.2305 10.42 2.6388 2.7127 5.9193 4.0683 9.8418 4.0684 3.0243-0.00003 5.4662-0.86105 7.3281-2.584 1.8618-1.723 2.7314-3.9216 2.6055-6.5976-0.0992-2.1079-0.97758-3.6116-2.6328-4.5098-1.6553-0.89815-4.4157-1.3477-8.2832-1.3476-1.448-0.00002-2.8942 0.047-4.3379 0.13867-1.4245 0.10996-2.8384 0.26516-4.2402 0.46679l-0.0176-0.38476c-0.13453-2.8594 0.60116-5.123 2.209-6.791s3.8598-2.502 6.7559-2.502c1.3564 0 2.6218 0.17322 3.793 0.52149 1.172 0.36658 2.2495 0.90819 3.2363 1.623 0.37995-0.4949 0.65183-0.96244 0.81446-1.4023 0.18176-0.42158 0.26308-0.83504 0.24414-1.2383-0.0466-0.98979-0.82695-1.8038-2.3418-2.4453-1.4957-0.62319-3.4356-0.93554-5.8184-0.93554zm46.008 0.2207c-0.84316 0-1.4103 0.2183-1.7012 0.6582-0.29005 0.45823-0.40102 1.4204-0.33203 2.8867 0.0164 0.34826 0.26393 3.0524 0.74024 8.1113 0.49462 5.0589 0.85148 9.9346 1.0723 14.627 0.21214 4.509 0.25551 7.5616 0.12891 9.1562s-0.41629 2.8581-0.86719 3.793c0.82632 0.42154 1.5557 0.72487 2.1875 0.90821 0.65015 0.18325 1.2509 0.27535 1.8008 0.27539 0.84315-0.00004 1.4169-0.25635 1.7227-0.76954 0.30663-0.49493 0.42663-1.459 0.35937-2.8887-0.01-0.20166-0.15922-1.6313-0.44922-4.2891-0.27082-2.6395-0.49398-5.2225-0.66796-7.752 1.4946 0.98976 2.9508 1.7316 4.3672 2.2266 1.4355 0.51319 2.8221 0.76951 4.1602 0.76953 3.061-0.00002 5.3987-0.95314 7.0137-2.8594 1.6341-1.888 2.3724-4.527 2.2129-7.918-0.0302-0.64155-0.11005-1.7408-0.23828-3.2988-0.12748-1.5397-0.21277-2.7691-0.25586-3.6856-0.11645-2.4745-0.10311-4.3427 0.0391-5.6074 0.16129-1.2464 0.47868-2.2826 0.95313-3.1074-0.86302-0.42158-1.6205-0.73393-2.2715-0.93555-0.65103-0.20162-1.2239-0.30078-1.7188-0.30078-0.8615 0-1.4477 0.20929-1.7578 0.63086-0.29092 0.43991-0.40609 1.3029-0.3457 2.5859 0.0396 0.84314 0.17003 2.419 0.38867 4.7285 0.21862 2.3095 0.36177 4.2067 0.43164 5.6914 0.17504 3.7208-0.15881 6.36-1.002 7.918-0.84233 1.5763-2.336 2.3633-4.4805 2.3633-1.1548-0.00002-2.3286-0.20931-3.5215-0.63086-1.1746-0.4216-2.5544-1.1274-4.1406-2.1172-0.14232-1.4664-0.26809-2.9881-0.37891-4.5644-0.0925-1.5763-0.17825-3.1902-0.25586-4.8398-0.14317-3.0427-0.14958-5.3244-0.0195-6.8457 0.14837-1.5213 0.44728-2.7668 0.89649-3.7383-0.73384-0.40324-1.4361-0.70658-2.1055-0.9082-0.66849-0.1833-1.3233-0.27344-1.9648-0.27344zm29.623 0c-0.89815 0-1.5011 0.23828-1.8086 0.71484-0.28832 0.4949-0.39712 1.4751-0.32813 2.9414 0.0397 0.84315 0.21073 2.7314 0.51368 5.6641 0.30293 2.9327 0.50433 5.4526 0.60351 7.5606 0.10779 2.2912 0.0843 4.1504-0.0684 5.5801-0.15269 1.4297-0.45294 2.6501-0.90039 3.6582 0.69715 0.40323 1.4085 0.7046 2.1328 0.90625 0.72518 0.21993 1.4363 0.33005 2.1328 0.33008 0.84314-0.00003 1.4114-0.21127 1.7031-0.63281 0.29262-0.40327 0.41197-1.1632 0.35938-2.2812-0.0139-0.2933-0.17254-1.8982-0.47461-4.8125-0.3021-2.9144-0.5134-5.6816-0.63672-8.3027-0.11557-2.4561-0.0921-4.4905 0.0703-6.1035 0.18071-1.613 0.50272-2.9416 0.9668-3.9863-0.78969-0.42158-1.5382-0.73393-2.2441-0.93555-0.70602-0.20162-1.38-0.30078-2.0215-0.30078zm-49.791 3.7656c2.8594 0 5.2589 0.92607 7.1973 2.7773 1.9392 1.8696 2.9748 4.2344 3.1094 7.0938 0.13968 2.9693-0.60061 5.3521-2.2207 7.1484-1.6018 1.7963-3.805 2.6933-6.6094 2.6934-1.1914-0.00003-2.4567-0.23831-3.7988-0.71485-1.3413-0.45825-2.6837-1.1351-4.0273-2.0332-0.11774-1.723-0.25295-3.8044-0.4043-6.2422-0.1322-2.4195-0.28259-5.2048-0.44922-8.3574 1.1369-0.76984 2.3104-1.3565 3.5195-1.7598 1.2091-0.40325 2.4372-0.60546 3.6836-0.60546zm120.79 0.53906c2.75 0 4.9165 0.87878 6.7246 2.6856 1.828 1.8259 2.7944 4.0992 2.9316 7.0156 0.13364 2.8408-0.60171 4.9964-2.1953 6.7031a0.98407 0.98407 0 0 0 -0.008 0.01c-1.5755 1.7221-3.6112 2.5683-6.3672 2.5684v0.002c-2.8086-0.00002-4.9932-0.88-6.7793-2.6973-1.764-1.7959-2.7314-4.1552-2.877-7.25-0.12696-2.6984 0.61466-4.7968 2.2305-6.5117l0.002-0.002 0.002-0.002c1.6151-1.6928 3.6552-2.5215 6.3359-2.5215zm-146.34 11.695c2.2912-0.00002 3.8314 0.21122 4.6211 0.63281 0.78965 0.42156 1.21 1.1815 1.2617 2.2812 0.0784 1.668-0.43589 2.9895-1.5449 3.9609-1.1091 0.97144-2.6642 1.457-4.6621 1.457-2.1262-0.00002-3.9252-0.6788-5.4004-2.0352s-2.4633-3.2536-2.9629-5.6914c1.2002-0.20164 2.522-0.35684 3.9648-0.4668 1.462-0.0917 3.0363-0.13869 4.7227-0.13867zm97.25 0c2.2912-0.00002 3.8314 0.21122 4.6211 0.63281 0.78965 0.42156 1.21 1.1815 1.2617 2.2812 0.0785 1.668-0.43589 2.9895-1.5449 3.9609-1.1091 0.97144-2.6623 1.457-4.6602 1.457-2.1262-0.00002-3.9272-0.6788-5.4023-2.0352-1.4752-1.3564-2.4633-3.2536-2.9629-5.6914 1.2002-0.20164 2.522-0.35684 3.9648-0.4668 1.462-0.0917 3.0363-0.13869 4.7227-0.13867zm130.26 1.0352c2.2299-0.00002 3.703 0.28173 4.1484 0.51953 0.49037 0.26178 0.71123 0.58762 0.75196 1.4531 0.0676 1.437-0.32888 2.387-1.2227 3.1699-0.88989 0.77946-2.1669 1.2129-4.0059 1.2129-1.9186-0.00003-3.4449-0.57491-4.7441-1.7695-1.0724-0.98607-1.7971-2.4122-2.3047-4.1367 0.86675-0.11432 1.7165-0.23237 2.7168-0.3086 1.4375-0.0899 2.9986-0.14064 4.6602-0.14062zm-150.56 15.049c-0.97147-0.00003-1.7292 0.27626-2.2715 0.82618-0.54234 0.54985-0.79204 1.2917-0.74805 2.2266 0.0483 1.0264 0.45585 1.8964 1.2227 2.6113 0.76766 0.73314 1.674 1.0996 2.7188 1.0996 0.95312-0.00004 1.7196-0.2924 2.2969-0.87891 0.59558-0.58657 0.87036-1.3285 0.82812-2.2266-0.0492-1.0448-0.45672-1.9168-1.2227-2.6133-0.76595-0.69655-1.7061-1.045-2.8242-1.0449zm33.652 22.508c0.44195 0.25897 0.53333 1.4784 0.30469 1.707-0.10666-0.21331-0.22995-0.53492-0.50391-0.82422 0.061-0.31963 0.0926-0.62384 0.19922-0.88281z" transform="translate(-381.64 118.05)" fill="url(#linearGradient6093)"/>
 </g>
</svg>
